<svg width="740" height="246" viewBox="0 0 740 246" fill="none" xmlns="http://www.w3.org/2000/svg">
<path d="M634.932 152.746V2.0603H740V31.6382H671.353V62.5405H734.629V92.192H671.353V123.168H740V152.746H634.932Z" fill="#373737"/>
<path d="M614.091 56.6542H577.303C576.812 52.8773 575.807 49.4682 574.286 46.427C572.766 43.3859 570.755 40.7862 568.253 38.6279C565.751 36.4696 562.784 34.8264 559.35 33.6982C555.966 32.521 552.213 31.9324 548.093 31.9324C540.784 31.9324 534.481 33.7228 529.184 37.3035C523.935 40.8843 519.888 46.0592 517.043 52.8282C514.247 59.5973 512.849 67.7889 512.849 77.4029C512.849 87.4094 514.272 95.7972 517.117 102.566C520.011 109.286 524.058 114.363 529.257 117.797C534.506 121.181 540.711 122.873 547.872 122.873C551.894 122.873 555.549 122.358 558.835 121.328C562.171 120.298 565.089 118.802 567.591 116.84C570.141 114.829 572.226 112.401 573.845 109.556C575.512 106.662 576.665 103.4 577.303 99.7703L614.091 99.9911C613.454 106.662 611.516 113.235 608.279 119.71C605.09 126.184 600.7 132.095 595.108 137.442C589.517 142.739 582.699 146.958 574.654 150.097C566.659 153.236 557.486 154.806 547.136 154.806C533.5 154.806 521.286 151.814 510.495 145.829C499.753 139.796 491.267 131.016 485.037 119.489C478.808 107.962 475.693 93.9332 475.693 77.4029C475.693 60.8236 478.857 46.7704 485.185 35.2434C491.512 23.7163 500.072 14.9606 510.863 8.97639C521.654 2.99213 533.745 0 547.136 0C556.26 0 564.697 1.27534 572.447 3.82601C580.197 6.32762 587.015 10.0065 592.901 14.8625C598.787 19.6696 603.57 25.5803 607.249 32.5946C610.928 39.6089 613.208 47.6288 614.091 56.6542Z" fill="#373737"/>
<path d="M454.448 2.0603V152.746H418.027V2.0603H454.448Z" fill="#373737"/>
<path d="M280.843 152.746V2.0603H343.089C354.371 2.0603 364.108 4.09593 372.299 8.16719C380.54 12.1894 386.892 17.9774 391.356 25.5313C395.819 33.0362 398.051 41.939 398.051 52.2398C398.051 62.6877 395.77 71.566 391.209 78.8746C386.647 86.1342 380.172 91.677 371.784 95.503C363.396 99.2799 353.464 101.168 341.986 101.168H302.622V72.4734H335.216C340.71 72.4734 345.297 71.7622 348.975 70.3397C352.703 68.8682 355.524 66.6609 357.437 63.7178C359.35 60.7256 360.306 56.8996 360.306 52.2398C360.306 47.5799 359.35 43.7294 357.437 40.6882C355.524 37.598 352.703 35.2925 348.975 33.772C345.247 32.2023 340.661 31.4175 335.216 31.4175H317.264V152.746H280.843ZM365.677 83.8778L403.202 152.746H363.47L326.682 83.8778H365.677Z" fill="#373737"/>
<path d="M164.739 2.0603L192.256 49.6646H193.434L221.246 2.0603H262.007L216.537 77.4031L263.479 152.746H221.687L193.434 104.627H192.256L164.003 152.746H122.506L169.227 77.4031L123.683 2.0603H164.739Z" fill="#373737"/>
<path d="M0 152.746V2.0603H105.068V31.6382H36.4206V62.5405H99.6967V92.192H36.4206V123.168H105.068V152.746H0Z" fill="#373737"/>
<path d="M283.385 194.555C283.071 191.618 281.748 189.331 279.416 187.694C277.106 186.057 274.101 185.238 270.401 185.238C267.8 185.238 265.569 185.631 263.708 186.416C261.847 187.2 260.423 188.266 259.436 189.611C258.45 190.956 257.945 192.492 257.923 194.219C257.923 195.654 258.248 196.899 258.898 197.953C259.571 199.006 260.479 199.903 261.623 200.643C262.766 201.361 264.033 201.966 265.423 202.46C266.814 202.953 268.215 203.368 269.628 203.704L276.086 205.319C278.687 205.924 281.187 206.743 283.586 207.774C286.008 208.805 288.172 210.106 290.078 211.676C292.006 213.245 293.531 215.14 294.652 217.36C295.774 219.58 296.334 222.181 296.334 225.163C296.334 229.2 295.303 232.754 293.24 235.826C291.177 238.875 288.194 241.263 284.293 242.99C280.414 244.694 275.716 245.546 270.2 245.546C264.84 245.546 260.188 244.717 256.241 243.057C252.317 241.398 249.245 238.976 247.025 235.792C244.828 232.608 243.639 228.729 243.46 224.154H255.737C255.916 226.554 256.656 228.549 257.956 230.141C259.257 231.733 260.95 232.922 263.035 233.707C265.143 234.492 267.498 234.884 270.099 234.884C272.812 234.884 275.189 234.48 277.229 233.673C279.292 232.843 280.907 231.7 282.073 230.242C283.239 228.762 283.833 227.036 283.856 225.062C283.833 223.269 283.306 221.789 282.275 220.623C281.243 219.434 279.797 218.448 277.936 217.663C276.097 216.856 273.944 216.138 271.478 215.51L263.641 213.492C257.968 212.034 253.483 209.826 250.187 206.866C246.913 203.884 245.276 199.926 245.276 194.993C245.276 190.934 246.375 187.38 248.572 184.33C250.792 181.281 253.808 178.915 257.62 177.233C261.432 175.529 265.749 174.677 270.57 174.677C275.458 174.677 279.741 175.529 283.418 177.233C287.118 178.915 290.022 181.258 292.13 184.263C294.238 187.245 295.325 190.676 295.392 194.555H283.385Z" fill="#373737"/>
<path d="M180.394 186.079V175.618H235.353V186.079H214.062V244.503H201.685V186.079H180.394Z" fill="#373737"/>
<path d="M121.818 244.503V175.618H147.65C152.942 175.618 157.382 176.538 160.97 178.376C164.58 180.215 167.304 182.794 169.143 186.112C171.004 189.409 171.935 193.254 171.935 197.649C171.935 202.067 170.993 205.901 169.109 209.152C167.248 212.381 164.501 214.882 160.869 216.653C157.236 218.402 152.774 219.277 147.482 219.277H129.083V208.917H145.8C148.895 208.917 151.428 208.491 153.402 207.639C155.375 206.764 156.832 205.497 157.774 203.838C158.738 202.156 159.221 200.093 159.221 197.649C159.221 195.205 158.738 193.12 157.774 191.393C156.81 189.644 155.341 188.321 153.368 187.424C151.395 186.505 148.85 186.045 145.733 186.045H134.297V244.503H121.818ZM157.404 213.29L174.457 244.503H160.532L143.782 213.29H157.404Z" fill="#373737"/>
<path d="M62.1241 244.503H48.8046L73.0555 175.618H88.4604L112.745 244.503H99.4255L81.0271 189.745H80.4889L62.1241 244.503ZM62.5614 217.494H98.8873V227.517H62.5614V217.494Z" fill="#373737"/>
<path d="M0 244.503V175.618H25.8318C31.1237 175.618 35.5636 176.605 39.1513 178.578C42.7615 180.551 45.486 183.265 47.3247 186.718C49.1858 190.149 50.1164 194.05 50.1164 198.423C50.1164 202.84 49.1858 206.764 47.3247 210.195C45.4635 213.626 42.7167 216.328 39.0841 218.301C35.4515 220.252 30.978 221.227 25.6636 221.227H8.54333V210.969H23.9819C27.0763 210.969 29.6102 210.431 31.5834 209.354C33.5567 208.278 35.0142 206.798 35.956 204.914C36.9202 203.031 37.4023 200.867 37.4023 198.423C37.4023 195.979 36.9202 193.826 35.956 191.965C35.0142 190.104 33.5455 188.657 31.5498 187.626C29.5765 186.572 27.0315 186.045 23.9146 186.045H12.4786V244.503H0Z" fill="#373737"/>
</svg>
